<svg id="Layer_1" data-name="Layer 1" xmlns="http://www.w3.org/2000/svg" viewBox="0 0 121.48 85.04">
  <g>
    <path d="M119.15,13.28A15.21,15.21,0,0,0,108.41,2.54C98.93,0,60.94,0,60.94,0S23,0,13.48,2.54A15.21,15.21,0,0,0,2.74,13.28C.2,22.75.2,42.52.2,42.52s0,19.77,2.54,29.24A15.21,15.21,0,0,0,13.48,82.5C23,85,60.94,85,60.94,85s38,0,47.47-2.54a15.21,15.21,0,0,0,10.74-10.74c2.54-9.47,2.54-29.24,2.54-29.24S121.69,22.75,119.15,13.28Z" transform="translate(-0.2)" fill="#ee3124"/>
    <polygon points="48.59 60.74 80.16 42.52 48.59 24.3 48.59 60.74" fill="#fff"/>
  </g>
</svg>
